<svg width="48" height="48" viewBox="0 0 48 48" fill="none" xmlns="http://www.w3.org/2000/svg">
<path d="M18.0002 39C19.1922 39.0049 20.3339 39.4806 21.1768 40.3235C22.0196 41.1663 22.4953 42.308 22.5002 43.5C22.5002 43.8978 22.6583 44.2794 22.9396 44.5607C23.2209 44.842 23.6024 45 24.0002 45C24.3981 45 24.7796 44.842 25.0609 44.5607C25.3422 44.2794 25.5002 43.8978 25.5002 43.5C25.5052 42.308 25.9809 41.1663 26.8237 40.3235C27.6666 39.4806 28.8083 39.0049 30.0002 39H42.0002C42.7959 39 43.559 38.6839 44.1216 38.1213C44.6842 37.5587 45.0002 36.7956 45.0002 36V12C45.0002 11.2044 44.6842 10.4413 44.1216 9.87868C43.559 9.31607 42.7959 9 42.0002 9H33.0002C31.0111 9 29.1035 9.79018 27.6969 11.1967C26.2904 12.6032 25.5002 14.5109 25.5002 16.5V31.5C25.5002 31.8978 25.3422 32.2794 25.0609 32.5607C24.7796 32.842 24.3981 33 24.0002 33C23.6024 33 23.2209 32.842 22.9396 32.5607C22.6583 32.2794 22.5002 31.8978 22.5002 31.5V16.5C22.5002 14.5109 21.7101 12.6032 20.3035 11.1967C18.897 9.79018 16.9894 9 15.0002 9H6.00024C5.20459 9 4.44153 9.31607 3.87892 9.87868C3.31631 10.4413 3.00024 11.2044 3.00024 12V36C3.00024 36.7956 3.31631 37.5587 3.87892 38.1213C4.44153 38.6839 5.20459 39 6.00024 39H18.0002Z" fill="#1C1A24"/>
</svg>
