<svg width="14" height="14" viewBox="0 0 14 14" fill="none" xmlns="http://www.w3.org/2000/svg">
<g id="vuesax/linear/note-favorite">
<g id="note-favorite">
<path id="Vector" d="M12.25 4.95964V7.95214C11.7308 7.53797 11.0717 7.29297 10.3542 7.29297C9.63667 7.29297 8.96583 7.54379 8.44083 7.96962C7.735 8.52379 7.29167 9.39297 7.29167 10.3555C7.29167 10.9271 7.45501 11.4755 7.73501 11.9305C7.95084 12.2863 8.23083 12.5955 8.56333 12.8346H4.66667C2.625 12.8346 1.75 11.668 1.75 9.91797V4.95964C1.75 3.20964 2.625 2.04297 4.66667 2.04297H9.33333C11.375 2.04297 12.25 3.20964 12.25 4.95964Z" stroke="#F04438" stroke-miterlimit="10" stroke-linecap="round" stroke-linejoin="round"/>
<path id="Vector_2" d="M4.08333 6.41797H7.58333" stroke="#F04438" stroke-miterlimit="10" stroke-linecap="round" stroke-linejoin="round"/>
<path id="Vector_3" d="M4.08333 9.33203H5.61166" stroke="#F04438" stroke-miterlimit="10" stroke-linecap="round" stroke-linejoin="round"/>
<path id="Vector_4" d="M13.4167 10.3555C13.4167 10.9271 13.2533 11.4755 12.9733 11.9305C12.81 12.2105 12.6058 12.4555 12.3667 12.6538C11.83 13.1321 11.13 13.418 10.3542 13.418C9.68334 13.418 9.065 13.2021 8.56333 12.8346C8.23083 12.5955 7.95084 12.2863 7.73501 11.9305C7.45501 11.4755 7.29167 10.9271 7.29167 10.3555C7.29167 9.39297 7.73501 8.52379 8.44084 7.96962C8.96584 7.54379 9.63667 7.29297 10.3542 7.29297C11.0717 7.29297 11.7308 7.53797 12.25 7.95214C12.9617 8.51214 13.4167 9.3813 13.4167 10.3555Z" stroke="#F04438" stroke-miterlimit="10" stroke-linecap="round" stroke-linejoin="round"/>
<path id="Vector_5" d="M10.3542 11.8112C10.3542 11.0062 11.0075 10.3529 11.8125 10.3529C11.0075 10.3529 10.3542 9.69953 10.3542 8.89453C10.3542 9.69953 9.70083 10.3529 8.89583 10.3529C9.70083 10.3529 10.3542 11.0062 10.3542 11.8112Z" stroke="#F04438" stroke-linecap="round" stroke-linejoin="round"/>
</g>
</g>
</svg>
