<svg width="49" height="48" viewBox="0 0 49 48" fill="none" xmlns="http://www.w3.org/2000/svg">
<g id="vuesax/bold/message-remove">
<g id="message-remove">
<path id="Vector" d="M16.44 29.66C15 28.02 12.86 27 10.5 27C6.08 27 2.5 30.58 2.5 35C2.5 36.5 2.92 37.92 3.66 39.12C4.06 39.8 4.58 40.42 5.18 40.94C6.58 42.22 8.44 43 10.5 43C13.42 43 15.96 41.44 17.34 39.12C18.08 37.92 18.5 36.5 18.5 35C18.5 32.96 17.72 31.08 16.44 29.66ZM13.7 38.16C13.4 38.46 13.02 38.6 12.64 38.6C12.26 38.6 11.88 38.46 11.58 38.16L10.52 37.1L9.42 38.2C9.12 38.5 8.74 38.64 8.36 38.64C7.98 38.64 7.6 38.5 7.3 38.2C6.72 37.62 6.72 36.66 7.3 36.08L8.4 34.98L7.34 33.92C6.76 33.34 6.76 32.38 7.34 31.8C7.92 31.22 8.88 31.22 9.46 31.8L10.52 32.86L11.52 31.86C12.1 31.28 13.06 31.28 13.64 31.86C14.22 32.44 14.22 33.4 13.64 33.98L12.64 34.98L13.7 36.04C14.28 36.62 14.28 37.56 13.7 38.16Z" fill="#B5B3BD"/>
<path id="Vector_2" d="M35 4.85999H16C10.3 4.85999 6.5 8.65999 6.5 14.36V23.28C6.5 23.98 7.22 24.48 7.9 24.3C8.74 24.1 9.6 24 10.5 24C16.22 24 20.94 28.64 21.46 34.26C21.5 34.82 21.96 35.26 22.5 35.26H23.6L32.06 40.9C33.3 41.74 35 40.82 35 39.3V35.26C37.84 35.26 40.22 34.3 41.88 32.66C43.54 30.98 44.5 28.6 44.5 25.76V14.36C44.5 8.65999 40.7 4.85999 35 4.85999ZM32.16 21.62H18.84C18.06 21.62 17.42 20.98 17.42 20.2C17.42 19.4 18.06 18.76 18.84 18.76H32.16C32.94 18.76 33.58 19.4 33.58 20.2C33.58 20.98 32.94 21.62 32.16 21.62Z" fill="#B5B3BD"/>
</g>
</g>
</svg>
