<svg width="14" height="14" viewBox="0 0 14 14" fill="none" xmlns="http://www.w3.org/2000/svg">
<g id="vuesax/linear/filter">
<g id="filter">
<path id="Vector" d="M3.14994 1.22501H10.8499C11.4916 1.22501 12.0166 1.75001 12.0166 2.39167V3.67501C12.0166 4.14167 11.7249 4.72501 11.4333 5.01667L8.92494 7.23334C8.57494 7.52501 8.34161 8.10834 8.34161 8.57501V11.0833C8.34161 11.4333 8.10828 11.9 7.81661 12.075L6.99994 12.6C6.24161 13.0667 5.19161 12.5417 5.19161 11.6083V8.51667C5.19161 8.10834 4.95828 7.58334 4.72494 7.29167L2.50828 4.95834C2.21661 4.66667 1.98328 4.14167 1.98328 3.79167V2.45001C1.98328 1.75001 2.50828 1.22501 3.14994 1.22501Z" stroke="#6C667A" stroke-miterlimit="10" stroke-linecap="round" stroke-linejoin="round"/>
<path id="Vector_2" d="M6.37583 1.22501L3.5 5.83334" stroke="#6C667A" stroke-miterlimit="10" stroke-linecap="round" stroke-linejoin="round"/>
</g>
</g>
</svg>
