<svg width="16" height="16" viewBox="0 0 16 16" fill="none" xmlns="http://www.w3.org/2000/svg">
<g id="Google svg" clip-path="url(#clip0_785_5020)">
<path id="Vector" d="M15.04 8.1665C15.04 7.6465 14.9933 7.1465 14.9067 6.6665H8V9.50317H11.9467C11.7767 10.4198 11.26 11.1965 10.4833 11.7165V13.5565H12.8533C14.24 12.2798 15.04 10.3998 15.04 8.1665Z" fill="#4285F4"/>
<path id="Vector_2" d="M8.0006 15.3336C9.9806 15.3336 11.6406 14.6769 12.8539 13.5569L10.4839 11.7169C9.82727 12.1569 8.98727 12.4169 8.0006 12.4169C6.0906 12.4169 4.47393 11.1269 3.89727 9.39355H1.44727V11.2936C2.65393 13.6902 5.13393 15.3336 8.0006 15.3336Z" fill="#34A853"/>
<path id="Vector_3" d="M3.89602 9.39321C3.74935 8.95321 3.66602 8.48321 3.66602 7.99988C3.66602 7.51654 3.74935 7.04654 3.89602 6.60654V4.70654H1.44602C0.932682 5.72845 0.665563 6.85628 0.666016 7.99988C0.666016 9.18321 0.94935 10.3032 1.44602 11.2932L3.89602 9.39321Z" fill="#FBBC05"/>
<path id="Vector_4" d="M8.0006 3.58317C9.07727 3.58317 10.0439 3.95317 10.8039 4.67984L12.9073 2.5765C11.6373 1.39317 9.97727 0.666504 8.0006 0.666504C5.13393 0.666504 2.65393 2.30984 1.44727 4.7065L3.89727 6.6065C4.47393 4.87317 6.0906 3.58317 8.0006 3.58317Z" fill="#EA4335"/>
</g>
<defs>
<clipPath id="clip0_785_5020">
<rect width="16" height="16" fill="white"/>
</clipPath>
</defs>
</svg>
