<svg width="18" height="18" viewBox="0 0 18 18" fill="none" xmlns="http://www.w3.org/2000/svg">
<g id="vuesax/bold/book">
<path id="Vector" d="M16.5 3.63922V12.5567C16.5 13.2842 15.9075 13.9517 15.18 14.0417L14.9475 14.0717C13.7175 14.2367 11.985 14.7467 10.59 15.3317C10.1025 15.5342 9.5625 15.1667 9.5625 14.6342V4.20172C9.5625 3.92422 9.72 3.66922 9.9675 3.53422C11.34 2.79172 13.4175 2.13172 14.8275 2.01172H14.8725C15.7725 2.01172 16.5 2.73922 16.5 3.63922Z" fill="#DAD9DE"/>
<path id="Vector_2" d="M8.03243 3.53422C6.65993 2.79172 4.58243 2.13172 3.17243 2.01172H3.11993C2.21993 2.01172 1.49243 2.73922 1.49243 3.63922V12.5567C1.49243 13.2842 2.08493 13.9517 2.81243 14.0417L3.04493 14.0717C4.27493 14.2367 6.00743 14.7467 7.40243 15.3317C7.88993 15.5342 8.42993 15.1667 8.42993 14.6342V4.20172C8.42993 3.91672 8.27993 3.66922 8.03243 3.53422ZM3.74993 5.80672H5.43743C5.74493 5.80672 5.99993 6.06172 5.99993 6.36922C5.99993 6.68422 5.74493 6.93172 5.43743 6.93172H3.74993C3.44243 6.93172 3.18743 6.68422 3.18743 6.36922C3.18743 6.06172 3.44243 5.80672 3.74993 5.80672ZM5.99993 9.18172H3.74993C3.44243 9.18172 3.18743 8.93422 3.18743 8.61922C3.18743 8.31172 3.44243 8.05672 3.74993 8.05672H5.99993C6.30743 8.05672 6.56243 8.31172 6.56243 8.61922C6.56243 8.93422 6.30743 9.18172 5.99993 9.18172Z" fill="#DAD9DE"/>
</g>
</svg>
