<svg width="16" height="16" viewBox="0 0 16 16" fill="none" xmlns="http://www.w3.org/2000/svg">
<g id="At">
<path id="Vector" d="M8 10.5C9.38071 10.5 10.5 9.38071 10.5 8C10.5 6.61929 9.38071 5.5 8 5.5C6.61929 5.5 5.5 6.61929 5.5 8C5.5 9.38071 6.61929 10.5 8 10.5Z" stroke="#918C9B" stroke-width="1.5" stroke-linecap="round" stroke-linejoin="round"/>
<path id="Vector_2" d="M11.3188 13.0001C10.2051 13.7395 8.87634 14.0858 7.54342 13.9841C6.21049 13.8823 4.94971 13.3384 3.96113 12.4385C2.97255 11.5387 2.3128 10.3344 2.08656 9.0169C1.86032 7.69938 2.08055 6.34404 2.71231 5.16594C3.34407 3.98784 4.35116 3.05445 5.5738 2.51389C6.79644 1.97333 8.16458 1.85655 9.46114 2.1821C10.7577 2.50764 11.9084 3.25685 12.7307 4.31084C13.553 5.36484 13.9997 6.66325 14 8.00006C14 9.38131 13.5 10.5001 12.25 10.5001C11 10.5001 10.5 9.38131 10.5 8.00006V5.50006" stroke="#918C9B" stroke-width="1.5" stroke-linecap="round" stroke-linejoin="round"/>
</g>
</svg>
