<svg width="18" height="18" viewBox="0 0 18 18" fill="none" xmlns="http://www.w3.org/2000/svg">
<path d="M12 3.1875C12 4.1175 11.2425 4.875 10.3125 4.875H7.6875C7.2225 4.875 6.8025 4.6875 6.495 4.38C6.1875 4.0725 6 3.6525 6 3.1875C6 2.2575 6.7575 1.5 7.6875 1.5H10.3125C10.7775 1.5 11.1975 1.6875 11.505 1.995C11.8125 2.3025 12 2.7225 12 3.1875Z" fill="#1C1A24"/>
<path d="M14.1225 3.7725C13.95 3.63 13.755 3.5175 13.545 3.435C13.3275 3.3525 13.11 3.525 13.065 3.75C12.81 5.0325 11.6775 6 10.3125 6H7.6875C6.9375 6 6.2325 5.7075 5.7 5.175C5.31 4.785 5.04 4.29 4.935 3.7575C4.89 3.5325 4.665 3.3525 4.4475 3.4425C3.5775 3.795 3 4.59 3 6.1875V13.5C3 15.75 4.3425 16.5 6 16.5H12C13.6575 16.5 15 15.75 15 13.5V6.1875C15 4.965 14.6625 4.215 14.1225 3.7725ZM6 9.1875H9C9.3075 9.1875 9.5625 9.4425 9.5625 9.75C9.5625 10.0575 9.3075 10.3125 9 10.3125H6C5.6925 10.3125 5.4375 10.0575 5.4375 9.75C5.4375 9.4425 5.6925 9.1875 6 9.1875ZM12 13.3125H6C5.6925 13.3125 5.4375 13.0575 5.4375 12.75C5.4375 12.4425 5.6925 12.1875 6 12.1875H12C12.3075 12.1875 12.5625 12.4425 12.5625 12.75C12.5625 13.0575 12.3075 13.3125 12 13.3125Z" fill="#1C1A24"/>
</svg>
