<svg width="14" height="14" viewBox="0 0 14 14" fill="none" xmlns="http://www.w3.org/2000/svg">
<g id="DotsSixVertical">
<path id="Vector" d="M5.03125 3.9375C5.39369 3.9375 5.6875 3.64369 5.6875 3.28125C5.6875 2.91881 5.39369 2.625 5.03125 2.625C4.66881 2.625 4.375 2.91881 4.375 3.28125C4.375 3.64369 4.66881 3.9375 5.03125 3.9375Z" fill="#1C1A24" stroke="black" stroke-width="0.5"/>
<path id="Vector_2" d="M8.96875 3.9375C9.33119 3.9375 9.625 3.64369 9.625 3.28125C9.625 2.91881 9.33119 2.625 8.96875 2.625C8.60631 2.625 8.3125 2.91881 8.3125 3.28125C8.3125 3.64369 8.60631 3.9375 8.96875 3.9375Z" fill="black" stroke="black" stroke-width="0.5"/>
<path id="Vector_3" d="M5.03125 7.65625C5.39369 7.65625 5.6875 7.36244 5.6875 7C5.6875 6.63756 5.39369 6.34375 5.03125 6.34375C4.66881 6.34375 4.375 6.63756 4.375 7C4.375 7.36244 4.66881 7.65625 5.03125 7.65625Z" fill="black" stroke="black" stroke-width="0.5"/>
<path id="Vector_4" d="M8.96875 7.65625C9.33119 7.65625 9.625 7.36244 9.625 7C9.625 6.63756 9.33119 6.34375 8.96875 6.34375C8.60631 6.34375 8.3125 6.63756 8.3125 7C8.3125 7.36244 8.60631 7.65625 8.96875 7.65625Z" fill="black" stroke="black" stroke-width="0.5"/>
<path id="Vector_5" d="M5.03125 11.375C5.39369 11.375 5.6875 11.0812 5.6875 10.7188C5.6875 10.3563 5.39369 10.0625 5.03125 10.0625C4.66881 10.0625 4.375 10.3563 4.375 10.7188C4.375 11.0812 4.66881 11.375 5.03125 11.375Z" fill="black" stroke="black" stroke-width="0.5"/>
<path id="Vector_6" d="M8.96875 11.375C9.33119 11.375 9.625 11.0812 9.625 10.7188C9.625 10.3563 9.33119 10.0625 8.96875 10.0625C8.60631 10.0625 8.3125 10.3563 8.3125 10.7188C8.3125 11.0812 8.60631 11.375 8.96875 11.375Z" fill="black" stroke="black" stroke-width="0.5"/>
</g>
</svg>
