<svg width="18" height="18" viewBox="0 0 18 18" fill="none" xmlns="http://www.w3.org/2000/svg">
<g id="vuesax/bold/book">
<path id="Vector" d="M16.5 3.63922V12.5567C16.5 13.2842 15.9075 13.9517 15.18 14.0417L14.9475 14.0717C13.7175 14.2367 11.985 14.7467 10.59 15.3317C10.1025 15.5342 9.5625 15.1667 9.5625 14.6342V4.20172C9.5625 3.92422 9.72 3.66922 9.9675 3.53422C11.34 2.79172 13.4175 2.13172 14.8275 2.01172H14.8725C15.7725 2.01172 16.5 2.73922 16.5 3.63922Z" fill="#1C1A24"/>
<path id="Vector_2" d="M8.03219 3.53422C6.65969 2.79172 4.58219 2.13172 3.17219 2.01172H3.11969C2.21969 2.01172 1.49219 2.73922 1.49219 3.63922V12.5567C1.49219 13.2842 2.08469 13.9517 2.81219 14.0417L3.04469 14.0717C4.27469 14.2367 6.00719 14.7467 7.40219 15.3317C7.88969 15.5342 8.42969 15.1667 8.42969 14.6342V4.20172C8.42969 3.91672 8.27969 3.66922 8.03219 3.53422ZM3.74969 5.80672H5.43719C5.74469 5.80672 5.99969 6.06172 5.99969 6.36922C5.99969 6.68422 5.74469 6.93172 5.43719 6.93172H3.74969C3.44219 6.93172 3.18719 6.68422 3.18719 6.36922C3.18719 6.06172 3.44219 5.80672 3.74969 5.80672ZM5.99969 9.18172H3.74969C3.44219 9.18172 3.18719 8.93422 3.18719 8.61922C3.18719 8.31172 3.44219 8.05672 3.74969 8.05672H5.99969C6.30719 8.05672 6.56219 8.31172 6.56219 8.61922C6.56219 8.93422 6.30719 9.18172 5.99969 9.18172Z" fill="#1C1A24"/>
</g>
</svg>
