<svg width="18" height="18" viewBox="0 0 18 18" fill="none" xmlns="http://www.w3.org/2000/svg">
<g id="vuesax/bold/directbox-default">
<g id="directbox-default">
<path id="Vector" d="M14.0175 8.64751C13.59 8.53501 13.0875 8.47501 12.4875 8.47501C11.655 8.47501 11.3475 8.67751 10.92 9.00001C10.8975 9.01501 10.875 9.03751 10.8525 9.06001L10.14 9.81751C9.54001 10.4475 8.46001 10.455 7.86001 9.81001L7.14751 9.06001C7.12501 9.03751 7.10251 9.01501 7.08001 9.00001C6.65251 8.67751 6.34501 8.47501 5.51251 8.47501C4.91251 8.47501 4.41001 8.53501 3.98251 8.64751C2.19751 9.12751 2.19751 10.545 2.19751 11.79V12.4875C2.19751 14.37 2.19751 16.5 6.21001 16.5H11.79C14.4525 16.5 15.8025 15.15 15.8025 12.4875V11.79C15.8025 10.545 15.8025 9.12751 14.0175 8.64751ZM10.7475 13.8H7.25251C6.96751 13.8 6.73501 13.5675 6.73501 13.275C6.73501 12.9825 6.96751 12.75 7.25251 12.75H10.7475C11.0325 12.75 11.265 12.9825 11.265 13.275C11.265 13.5675 11.0325 13.8 10.7475 13.8Z" fill="#DAD9DE"/>
<path id="Vector_2" d="M14.4075 4.815V7.59C14.3775 7.575 14.34 7.5675 14.31 7.56C13.785 7.4175 13.1925 7.35 12.4875 7.35C11.3325 7.35 10.7925 7.6875 10.2375 8.1075C10.1625 8.16 10.095 8.2275 10.035 8.2875L9.31503 9.045C9.24753 9.12 9.12753 9.165 9.00003 9.165C8.87253 9.165 8.75253 9.12 8.67753 9.0375L7.97253 8.295C7.90503 8.22 7.83003 8.1525 7.75503 8.1C7.21503 7.6875 6.66753 7.35 5.51253 7.35C4.80753 7.35 4.21503 7.4175 3.69003 7.56C3.66003 7.5675 3.62253 7.575 3.59253 7.59V4.815C3.59253 3.2625 3.59253 1.5 6.90753 1.5H11.0925C14.4075 1.5 14.4075 3.2625 14.4075 4.815Z" fill="#DAD9DE"/>
</g>
</g>
</svg>
