<svg xmlns="http://www.w3.org/2000/svg" width="18" height="18" viewBox="0 0 18 18" fill="none">
  <path d="M14.0173 8.64751C13.5898 8.53501 13.0873 8.47501 12.4873 8.47501C11.6548 8.47501 11.3473 8.67751 10.9198 9.00001C10.8973 9.01501 10.8748 9.03751 10.8523 9.06001L10.1398 9.81751C9.53977 10.4475 8.45976 10.455 7.85977 9.81001L7.14727 9.06001C7.12477 9.03751 7.10226 9.01501 7.07977 9.00001C6.65227 8.67751 6.34477 8.47501 5.51227 8.47501C4.91227 8.47501 4.40977 8.53501 3.98227 8.64751C2.19727 9.12751 2.19727 10.545 2.19727 11.79V12.4875C2.19727 14.37 2.19727 16.5 6.20977 16.5H11.7898C14.4523 16.5 15.8023 15.15 15.8023 12.4875V11.79C15.8023 10.545 15.8023 9.12751 14.0173 8.64751ZM10.7473 13.8H7.25227C6.96727 13.8 6.73477 13.5675 6.73477 13.275C6.73477 12.9825 6.96727 12.75 7.25227 12.75H10.7473C11.0323 12.75 11.2648 12.9825 11.2648 13.275C11.2648 13.5675 11.0323 13.8 10.7473 13.8Z" fill="#1C1A24"/>
  <path d="M14.4068 4.815V7.59C14.3768 7.575 14.3393 7.5675 14.3093 7.56C13.7843 7.4175 13.1918 7.35 12.4868 7.35C11.3318 7.35 10.7918 7.6875 10.2368 8.1075C10.1618 8.16 10.0943 8.2275 10.0343 8.2875L9.3143 9.045C9.2468 9.12 9.1268 9.165 8.9993 9.165C8.8718 9.165 8.7518 9.12 8.6768 9.0375L7.9718 8.295C7.9043 8.22 7.8293 8.1525 7.7543 8.1C7.2143 7.6875 6.6668 7.35 5.5118 7.35C4.8068 7.35 4.2143 7.4175 3.6893 7.56C3.6593 7.5675 3.6218 7.575 3.5918 7.59V4.815C3.5918 3.2625 3.5918 1.5 6.9068 1.5H11.0918C14.4068 1.5 14.4068 3.2625 14.4068 4.815Z" fill="#1C1A24"/>
</svg>