<svg width="25" height="24" viewBox="0 0 25 24" fill="none" xmlns="http://www.w3.org/2000/svg">
<path d="M7.83333 10.6667C7.1 10.6667 6.5 11.2667 6.5 12C6.5 12.7334 7.1 13.3334 7.83333 13.3334C8.56667 13.3334 9.16667 12.7334 9.16667 12C9.16667 11.2667 8.56667 10.6667 7.83333 10.6667Z" fill="#474059"/>
<path d="M17.1667 10.6667C16.4334 10.6667 15.8334 11.2667 15.8334 12C15.8334 12.7334 16.4334 13.3334 17.1667 13.3334C17.9 13.3334 18.5 12.7334 18.5 12C18.5 11.2667 17.9 10.6667 17.1667 10.6667Z" fill="#474059"/>
<path d="M12.5 10.6667C11.7666 10.6667 11.1666 11.2667 11.1666 12C11.1666 12.7334 11.7666 13.3334 12.5 13.3334C13.2333 13.3334 13.8333 12.7334 13.8333 12C13.8333 11.2667 13.2333 10.6667 12.5 10.6667Z" fill="#474059"/>
</svg>
