<svg width="16" height="16" viewBox="0 0 16 16" fill="none" xmlns="http://www.w3.org/2000/svg">
<g id="vuesax/bold/user-edit">
<g id="user-edit">
<path id="Vector" d="M7.44703 7.03642L7.47528 7.03258L7.50316 7.0266C7.62746 6.99997 7.74645 6.9524 7.84143 6.90491C7.9306 6.86032 8.06224 6.78435 8.17635 6.67025L9.97635 4.87025C10.1713 4.67532 10.4251 4.36135 10.4758 3.92957C10.5454 4.16316 10.5827 4.41055 10.5827 4.66658C10.5827 6.09237 9.42514 7.24992 7.99935 7.24992C7.67928 7.24992 7.37273 7.19158 7.08976 7.08498L7.44703 7.03642ZM8.72297 2.18614C8.2997 2.24018 7.98963 2.48898 7.79569 2.68292L6.00411 4.4745C5.88331 4.58965 5.80386 4.72218 5.75603 4.81784C5.70467 4.92056 5.65187 5.05702 5.63041 5.20585C5.63035 5.20629 5.63028 5.20674 5.63022 5.20719L5.57773 5.56758C5.47317 5.287 5.41602 4.98341 5.41602 4.66658C5.41602 3.2408 6.57356 2.08325 7.99935 2.08325C8.2505 2.08325 8.49333 2.11917 8.72297 2.18614Z" fill="#474059" stroke="#474059" stroke-width="1.5"/>
<path id="Vector_2" d="M13.2831 13.9166H2.71584C2.97549 11.868 5.12526 10.0833 7.99945 10.0833C10.8736 10.0833 13.0234 11.868 13.2831 13.9166Z" fill="#474059" stroke="#474059" stroke-width="1.5"/>
</g>
</g>
</svg>
