<svg width="18" height="18" viewBox="0 0 18 18" fill="none" xmlns="http://www.w3.org/2000/svg">
<g id="vuesax/bold/headphone">
<g id="headphone">
<path id="Vector" d="M2.06261 13.9875C1.75511 13.9875 1.50011 13.7325 1.50011 13.425V9.15001C1.46261 7.11751 2.22011 5.19751 3.63011 3.75751C5.04011 2.32501 6.93011 1.53751 8.96261 1.53751C13.1176 1.53751 16.5001 4.92001 16.5001 9.07501V13.35C16.5001 13.6575 16.2451 13.9125 15.9376 13.9125C15.6301 13.9125 15.3751 13.6575 15.3751 13.35V9.07501C15.3751 5.54251 12.5026 2.66251 8.96261 2.66251C7.23011 2.66251 5.62511 3.33001 4.43261 4.54501C3.23261 5.76751 2.59511 7.39501 2.62511 9.13501V13.4175C2.62511 13.7325 2.37761 13.9875 2.06261 13.9875Z" fill="#DAD9DE"/>
<path id="Vector_2" d="M4.455 9.33752H4.3575C2.7825 9.33752 1.5 10.62 1.5 12.195V13.605C1.5 15.18 2.7825 16.4625 4.3575 16.4625H4.455C6.03 16.4625 7.3125 15.18 7.3125 13.605V12.195C7.3125 10.62 6.03 9.33752 4.455 9.33752Z" fill="#DAD9DE"/>
<path id="Vector_3" d="M13.6425 9.33752H13.545C11.97 9.33752 10.6875 10.62 10.6875 12.195V13.605C10.6875 15.18 11.97 16.4625 13.545 16.4625H13.6425C15.2175 16.4625 16.5 15.18 16.5 13.605V12.195C16.5 10.62 15.2175 9.33752 13.6425 9.33752Z" fill="#DAD9DE"/>
</g>
</g>
</svg>
