<svg xmlns="http://www.w3.org/2000/svg" width="18" height="18" viewBox="0 0 18 18" fill="none">
  <path d="M12.6225 11.73C13.125 11.4 13.785 11.76 13.785 12.36V13.3275C13.785 14.28 13.0425 15.3 12.15 15.6L9.75747 16.395C9.33747 16.5375 8.65497 16.5375 8.24247 16.395L5.84997 15.6C4.94997 15.3 4.21497 14.28 4.21497 13.3275V12.3525C4.21497 11.76 4.87497 11.4 5.36997 11.7225L6.91497 12.7275C7.50747 13.125 8.25747 13.32 9.00747 13.32C9.75747 13.32 10.5075 13.125 11.1 12.7275L12.6225 11.73Z" fill="#1C1A24"/>
  <path d="M14.985 4.84501L10.4925 1.89751C9.68251 1.36501 8.34751 1.36501 7.53751 1.89751L3.02251 4.84501C1.57501 5.78251 1.57501 7.90501 3.02251 8.85001L4.22251 9.63001L7.53751 11.79C8.34751 12.3225 9.68251 12.3225 10.4925 11.79L13.785 9.63001L14.8125 8.95501V11.25C14.8125 11.5575 15.0675 11.8125 15.375 11.8125C15.6825 11.8125 15.9375 11.5575 15.9375 11.25V7.56001C16.2375 6.59251 15.93 5.46751 14.985 4.84501Z" fill="#1C1A24"/>
</svg>