<svg width="14" height="14" viewBox="0 0 14 14" fill="none" xmlns="http://www.w3.org/2000/svg">
<g id="Link">
<path id="Vector" d="M11.4844 2.51609C11.2211 2.25103 10.908 2.04068 10.563 1.89713C10.2181 1.75359 9.84821 1.67969 9.47461 1.67969C9.10102 1.67969 8.73111 1.75359 8.38618 1.89713C8.04126 2.04068 7.72814 2.25103 7.46485 2.51609L6.38204 3.5989C6.30663 3.68212 6.26611 3.79116 6.26888 3.90343C6.27164 4.0157 6.31747 4.12261 6.39689 4.20202C6.4763 4.28143 6.58321 4.32726 6.69548 4.33003C6.80775 4.33279 6.91678 4.29227 7.00001 4.21687L8.08282 3.13405C8.45271 2.76637 8.95307 2.55999 9.47461 2.55999C9.99616 2.55999 10.4965 2.76637 10.8664 3.13405C11.0498 3.31649 11.1953 3.53337 11.2946 3.77222C11.3939 4.01107 11.445 4.26718 11.445 4.52585C11.445 4.78452 11.3939 5.04064 11.2946 5.27949C11.1953 5.51834 11.0498 5.73521 10.8664 5.91765L9.31875 7.46531C8.94886 7.83299 8.4485 8.03937 7.92696 8.03937C7.40541 8.03937 6.90505 7.83299 6.53516 7.46531C6.49537 7.42139 6.44706 7.38601 6.39318 7.36132C6.3393 7.33664 6.28097 7.32316 6.22172 7.3217C6.16247 7.32024 6.10355 7.33083 6.04852 7.35284C5.99349 7.37484 5.9435 7.4078 5.90159 7.44971C5.85969 7.49161 5.82673 7.5416 5.80473 7.59663C5.78272 7.65166 5.77213 7.71059 5.77359 7.76983C5.77504 7.82908 5.78853 7.88742 5.81321 7.9413C5.8379 7.99518 5.87327 8.04348 5.91719 8.08327C6.45041 8.61593 7.17327 8.91512 7.92696 8.91512C8.68064 8.91512 9.4035 8.61593 9.93672 8.08327L11.4844 6.53562C11.7494 6.27233 11.9598 5.9592 12.1033 5.61428C12.2469 5.26936 12.3208 4.89945 12.3208 4.52585C12.3208 4.15225 12.2469 3.78234 12.1033 3.43742C11.9598 3.0925 11.7494 2.77938 11.4844 2.51609Z" fill="#039855"/>
<path id="Vector_2" d="M7 9.78419L5.91719 10.867C5.54543 11.2232 5.04894 11.4195 4.53413 11.414C4.01932 11.4085 3.52715 11.2015 3.1631 10.8375C2.79906 10.4734 2.5921 9.98128 2.58658 9.46647C2.58107 8.95166 2.77743 8.45517 3.13359 8.08341L4.68125 6.53575C5.05114 6.16807 5.5515 5.96169 6.07305 5.96169C6.59459 5.96169 7.09495 6.16807 7.46484 6.53575C7.54807 6.61116 7.6571 6.65168 7.76937 6.64891C7.88164 6.64615 7.98855 6.60031 8.06796 6.5209C8.14738 6.44149 8.19321 6.33458 8.19597 6.22231C8.19874 6.11004 8.15822 6.00101 8.08281 5.91778C7.54959 5.38513 6.82673 5.08594 6.07305 5.08594C5.31936 5.08594 4.5965 5.38513 4.06328 5.91778L2.51563 7.46544C2.23739 7.72609 2.01441 8.04003 1.85994 8.38859C1.70547 8.73714 1.62267 9.1132 1.61645 9.4944C1.61024 9.87561 1.68073 10.2542 1.82376 10.6076C1.96678 10.961 2.1794 11.282 2.44899 11.5516C2.71857 11.8212 3.03962 12.0338 3.39302 12.1768C3.74643 12.3199 4.12499 12.3904 4.50619 12.3841C4.88739 12.3779 5.26345 12.2951 5.61201 12.1407C5.96057 11.9862 6.27451 11.7632 6.53516 11.485L7.61797 10.4022C7.69338 10.3189 7.73389 10.2099 7.73113 10.0976C7.72836 9.98536 7.68253 9.87845 7.60312 9.79904C7.52371 9.71963 7.4168 9.6738 7.30453 9.67103C7.19226 9.66827 7.08322 9.70878 7 9.78419Z" fill="#039855"/>
</g>
</svg>
