<svg width="48" height="48" viewBox="0 0 48 48" fill="none" xmlns="http://www.w3.org/2000/svg">
<g id="BookOpen">
<path id="Vector" d="M18.0002 38.9998C19.1922 39.0047 20.3339 39.4804 21.1768 40.3233C22.0196 41.1661 22.4953 42.3078 22.5002 43.4998C22.5002 43.8976 22.6583 44.2791 22.9396 44.5604C23.2209 44.8418 23.6024 44.9998 24.0002 44.9998C24.3981 44.9998 24.7796 44.8418 25.0609 44.5604C25.3422 44.2791 25.5002 43.8976 25.5002 43.4998C25.5052 42.3078 25.9809 41.1661 26.8237 40.3233C27.6666 39.4804 28.8083 39.0047 30.0002 38.9998H42.0002C42.7959 38.9998 43.559 38.6837 44.1216 38.1211C44.6842 37.5585 45.0002 36.7954 45.0002 35.9998V11.9998C45.0002 11.2041 44.6842 10.4411 44.1216 9.87847C43.559 9.31586 42.7959 8.99979 42.0002 8.99979H33.0002C31.0111 8.99979 29.1035 9.78996 27.6969 11.1965C26.2904 12.603 25.5002 14.5107 25.5002 16.4998V31.4998C25.5002 31.8976 25.3422 32.2791 25.0609 32.5604C24.7796 32.8418 24.3981 32.9998 24.0002 32.9998C23.6024 32.9998 23.2209 32.8418 22.9396 32.5604C22.6583 32.2791 22.5002 31.8976 22.5002 31.4998V16.4998C22.5002 14.5107 21.7101 12.603 20.3035 11.1965C18.897 9.78996 16.9894 8.99979 15.0002 8.99979H6.00024C5.20459 8.99979 4.44153 9.31586 3.87892 9.87847C3.31631 10.4411 3.00024 11.2041 3.00024 11.9998V35.9998C3.00024 36.7954 3.31631 37.5585 3.87892 38.1211C4.44153 38.6837 5.20459 38.9998 6.00024 38.9998H18.0002Z" fill="white"/>
</g>
</svg>
