<svg width="14" height="14" viewBox="0 0 14 14" fill="none" xmlns="http://www.w3.org/2000/svg">
<g id="TextIndent">
<path id="Vector" d="M12.25 6.99859C12.25 7.11462 12.2039 7.2259 12.1219 7.30795C12.0398 7.39 11.9285 7.43609 11.8125 7.43609H6.5625C6.44647 7.43609 6.33519 7.39 6.25314 7.30795C6.1711 7.2259 6.125 7.11462 6.125 6.99859C6.125 6.88256 6.1711 6.77128 6.25314 6.68923C6.33519 6.60718 6.44647 6.56109 6.5625 6.56109H11.8125C11.9285 6.56109 12.0398 6.60718 12.1219 6.68923C12.2039 6.77128 12.25 6.88256 12.25 6.99859ZM6.5625 3.93609H11.8125C11.9285 3.93609 12.0398 3.89 12.1219 3.80795C12.2039 3.7259 12.25 3.61462 12.25 3.49859C12.25 3.38256 12.2039 3.27128 12.1219 3.18923C12.0398 3.10718 11.9285 3.06109 11.8125 3.06109H6.5625C6.44647 3.06109 6.33519 3.10718 6.25314 3.18923C6.1711 3.27128 6.125 3.38256 6.125 3.49859C6.125 3.61462 6.1711 3.7259 6.25314 3.80795C6.33519 3.89 6.44647 3.93609 6.5625 3.93609ZM11.8125 10.0611H2.1875C2.07147 10.0611 1.96019 10.1072 1.87814 10.1892C1.7961 10.2713 1.75 10.3826 1.75 10.4986C1.75 10.6146 1.7961 10.7259 1.87814 10.808C1.96019 10.89 2.07147 10.9361 2.1875 10.9361H11.8125C11.9285 10.9361 12.0398 10.89 12.1219 10.808C12.2039 10.7259 12.25 10.6146 12.25 10.4986C12.25 10.3826 12.2039 10.2713 12.1219 10.1892C12.0398 10.1072 11.9285 10.0611 11.8125 10.0611ZM2.01797 7.84078C2.07194 7.86221 2.12944 7.87334 2.1875 7.87359C2.30368 7.8731 2.41524 7.82808 2.49922 7.74781L4.68672 5.56031C4.76887 5.47736 4.81496 5.36534 4.81496 5.24859C4.81496 5.13184 4.76887 5.01982 4.68672 4.93687L2.49922 2.74937C2.43596 2.69002 2.3572 2.64979 2.27203 2.63334C2.18687 2.61689 2.09878 2.62488 2.01797 2.6564C1.93835 2.68987 1.87041 2.74616 1.82272 2.81818C1.77503 2.8902 1.74973 2.97472 1.75 3.06109V7.43609C1.74973 7.52246 1.77503 7.60699 1.82272 7.679C1.87041 7.75102 1.93835 7.80731 2.01797 7.84078Z" fill="#704AC9"/>
</g>
</svg>
